<svg id="svg" xmlns="http://www.w3.org/2000/svg" xmlns:xlink="http://www.w3.org/1999/xlink" width="400" height="400" viewBox="0, 0, 400,400"><g id="svgg"><path id="path0" d="M183.269 0.519 C 90.014 8.343,12.095 83.655,1.197 176.500 C -11.908 288.153,71.743 390.202,184.000 399.507 C 293.107 408.552,392.007 323.257,399.685 213.491 C 408.150 92.474,304.382 -9.643,183.269 0.519 M210.390 35.346 C 281.643 40.173,342.787 91.322,360.151 160.627 C 385.882 263.331,305.845 365.186,199.500 365.070 C 83.758 364.945,3.730 246.780,46.607 139.318 C 73.173 72.734,139.621 30.552,210.390 35.346 M130.167 157.564 C 106.604 182.225,90.126 199.725,90.067 200.149 C 89.991 200.707,94.437 205.544,109.712 221.518 C 120.572 232.875,138.673 251.804,149.937 263.583 L 170.417 285.000 199.736 285.000 C 217.170 285.000,229.011 284.877,228.944 284.697 C 228.883 284.531,216.833 272.118,202.166 257.114 C 187.498 242.110,173.862 228.146,171.863 226.083 L 168.228 222.333 234.781 222.333 L 301.333 222.333 301.333 200.334 L 301.333 178.335 234.726 178.251 L 168.119 178.167 195.558 150.167 C 210.650 134.767,224.365 120.704,226.036 118.917 L 229.073 115.667 199.620 115.683 L 170.167 115.699 130.167 157.564 " stroke="none" fill="#000000" fill-rule="evenodd"></path></g></svg>