<svg id="svg" xmlns="http://www.w3.org/2000/svg" xmlns:xlink="http://www.w3.org/1999/xlink" width="400" height="326.5625" viewBox="0, 0, 400,326.5625"><g id="svgg"><path id="path0" d="M239.456 1.758 C 234.515 6.021,234.634 27.320,239.622 31.243 C 241.563 32.770,242.757 32.813,283.894 32.837 C 340.287 32.869,342.726 33.298,354.714 45.286 C 367.631 58.202,367.139 53.531,367.139 163.281 C 367.139 273.031,367.631 268.360,354.714 281.277 C 342.728 293.263,340.280 293.694,283.955 293.726 L 241.738 293.750 239.154 295.907 C 234.447 299.837,234.782 321.186,239.611 324.984 C 242.367 327.153,331.667 327.458,341.949 325.334 C 370.063 319.527,392.965 296.626,398.772 268.512 C 400.629 259.518,400.629 67.044,398.772 58.051 C 392.965 29.937,370.063 7.035,341.949 1.228 C 336.926 0.191,328.673 0.000,288.748 0.000 L 241.493 0.000 239.456 1.758 M149.219 8.718 C 145.624 9.723,3.972 150.913,1.543 155.911 C -0.489 160.093,-0.489 166.469,1.543 170.652 C 4.225 176.170,145.676 316.839,149.609 317.899 C 156.508 319.758,162.090 318.422,166.696 313.809 C 171.872 308.626,171.875 308.594,171.875 266.511 L 171.875 228.906 230.664 228.889 C 299.296 228.869,296.672 229.253,301.130 218.580 C 302.961 214.198,302.961 112.364,301.130 107.983 C 296.672 97.310,299.296 97.693,230.664 97.673 L 171.875 97.656 171.875 60.052 C 171.875 17.968,171.872 17.937,166.696 12.754 C 162.105 8.155,156.148 6.780,149.219 8.718 " stroke="none" fill="#000000" fill-rule="evenodd"></path></g></svg>